<svg xmlns="http://www.w3.org/2000/svg" xmlns:xlink="http://www.w3.org/1999/xlink" width="500" zoomAndPan="magnify" viewBox="0 0 375 374.999991" height="500" preserveAspectRatio="xMidYMid meet" version="1.0"><defs><clipPath id="de5627dc20"><path d="M 37.5 37.5 L 337.5 37.5 L 337.5 337.5 L 37.5 337.5 Z M 37.5 37.5 " clip-rule="nonzero"/></clipPath><clipPath id="edf513cc6b"><path d="M 187.5 37.5 C 104.65625 37.5 37.5 104.65625 37.5 187.5 C 37.5 270.34375 104.65625 337.5 187.5 337.5 C 270.34375 337.5 337.5 270.34375 337.5 187.5 C 337.5 104.65625 270.34375 37.5 187.5 37.5 Z M 187.5 37.5 " clip-rule="nonzero"/></clipPath><clipPath id="70e7d68d09"><path d="M 98 104.539062 L 146 104.539062 L 146 152 L 98 152 Z M 98 104.539062 " clip-rule="nonzero"/></clipPath><clipPath id="004d8c3b02"><path d="M 98 222 L 146 222 L 146 270.289062 L 98 270.289062 Z M 98 222 " clip-rule="nonzero"/></clipPath></defs><g clip-path="url(#de5627dc20)"><g clip-path="url(#edf513cc6b)"><path fill="#73ae00" d="M 37.5 37.5 L 337.5 37.5 L 337.5 337.5 L 37.5 337.5 Z M 37.5 37.5 " fill-opacity="1" fill-rule="nonzero"/></g></g><g clip-path="url(#70e7d68d09)"><path fill="#e9efef" d="M 106.707031 151.632812 L 136.984375 151.632812 C 141.714844 151.632812 145.535156 147.8125 145.535156 143.082031 L 145.535156 112.808594 C 145.535156 108.074219 141.714844 104.253906 136.984375 104.253906 L 106.707031 104.253906 C 101.976562 104.253906 98.15625 108.074219 98.15625 112.808594 L 98.15625 143.082031 C 98.15625 147.8125 101.976562 151.632812 106.707031 151.632812 Z M 106.707031 151.632812 " fill-opacity="1" fill-rule="nonzero"/></g><path fill="#e9efef" d="M 266.351562 119.378906 L 168.457031 119.378906 C 163.734375 119.378906 159.90625 123.207031 159.90625 127.929688 C 159.90625 132.652344 163.734375 136.480469 168.457031 136.480469 L 266.351562 136.480469 C 271.070312 136.480469 274.902344 132.652344 274.902344 127.929688 C 274.902344 123.207031 271.070312 119.378906 266.351562 119.378906 Z M 266.351562 119.378906 " fill-opacity="1" fill-rule="nonzero"/><path fill="#e9efef" d="M 98.15625 202.378906 C 98.15625 207.050781 101.976562 210.929688 106.707031 210.929688 L 136.984375 210.929688 C 141.714844 210.929688 145.535156 207.050781 145.535156 202.378906 L 145.535156 172.046875 C 145.535156 167.371094 141.714844 163.492188 136.984375 163.492188 L 106.707031 163.492188 C 101.976562 163.492188 98.15625 167.371094 98.15625 172.046875 Z M 98.15625 202.378906 " fill-opacity="1" fill-rule="nonzero"/><path fill="#e9efef" d="M 266.351562 178.660156 L 168.457031 178.660156 C 163.734375 178.660156 159.90625 182.488281 159.90625 187.210938 C 159.90625 191.933594 163.734375 195.761719 168.457031 195.761719 L 266.351562 195.761719 C 271.070312 195.761719 274.902344 191.933594 274.902344 187.210938 C 274.902344 182.488281 271.070312 178.660156 266.351562 178.660156 Z M 266.351562 178.660156 " fill-opacity="1" fill-rule="nonzero"/><g clip-path="url(#004d8c3b02)"><path fill="#e9efef" d="M 98.15625 261.617188 C 98.15625 266.347656 101.976562 270.167969 106.707031 270.167969 L 136.984375 270.167969 C 141.714844 270.167969 145.535156 266.347656 145.535156 261.617188 L 145.535156 231.339844 C 145.535156 226.609375 141.714844 222.789062 136.984375 222.789062 L 106.707031 222.789062 C 101.976562 222.789062 98.15625 226.609375 98.15625 231.339844 Z M 98.15625 261.617188 " fill-opacity="1" fill-rule="nonzero"/></g><path fill="#e9efef" d="M 266.351562 237.941406 L 168.457031 237.941406 C 163.734375 237.941406 159.90625 241.769531 159.90625 246.492188 C 159.90625 251.214844 163.734375 255.046875 168.457031 255.046875 L 266.351562 255.046875 C 271.070312 255.046875 274.902344 251.214844 274.902344 246.492188 C 274.902344 241.769531 271.070312 237.941406 266.351562 237.941406 Z M 266.351562 237.941406 " fill-opacity="1" fill-rule="nonzero"/></svg>