<svg xmlns="http://www.w3.org/2000/svg" xmlns:xlink="http://www.w3.org/1999/xlink" width="500" zoomAndPan="magnify" viewBox="0 0 375 374.999991" height="500" preserveAspectRatio="xMidYMid meet" version="1.0"><defs><clipPath id="6271ddddbf"><path d="M 37.5 37.5 L 337.5 37.5 L 337.5 337.5 L 37.5 337.5 Z M 37.5 37.5 " clip-rule="nonzero"/></clipPath><clipPath id="30551256e8"><path d="M 187.5 37.5 C 104.65625 37.5 37.5 104.65625 37.5 187.5 C 37.5 270.34375 104.65625 337.5 187.5 337.5 C 270.34375 337.5 337.5 270.34375 337.5 187.5 C 337.5 104.65625 270.34375 37.5 187.5 37.5 Z M 187.5 37.5 " clip-rule="nonzero"/></clipPath><clipPath id="673cc94720"><path d="M 87.628906 101 L 287.128906 101 L 287.128906 274.238281 L 87.628906 274.238281 Z M 87.628906 101 " clip-rule="nonzero"/></clipPath></defs><g clip-path="url(#6271ddddbf)"><g clip-path="url(#30551256e8)"><path fill="#73ae00" d="M 37.5 37.5 L 337.5 37.5 L 337.5 337.5 L 37.5 337.5 Z M 37.5 37.5 " fill-opacity="1" fill-rule="nonzero"/></g></g><g clip-path="url(#673cc94720)"><path fill="#e9efef" d="M 92.074219 240.332031 L 185.234375 273.605469 C 186.699219 274.136719 188.296875 274.136719 189.761719 273.605469 L 282.855469 240.332031 C 285.515625 239.398438 287.3125 236.871094 287.3125 234.078125 L 287.3125 134.125 C 287.179688 131.265625 285.25 128.671875 282.457031 127.871094 L 189.292969 101.253906 C 188.097656 100.921875 186.832031 100.921875 185.632812 101.253906 L 92.539062 127.871094 C 90.410156 128.539062 88.679688 130.132812 88.011719 132.265625 C 87.8125 132.863281 87.746094 133.59375 87.679688 134.261719 L 87.679688 234.078125 C 87.679688 236.871094 89.476562 239.398438 92.074219 240.332031 Z M 194.152344 172.257812 L 274.003906 143.710938 L 274.003906 229.417969 L 194.152344 257.898438 Z M 100.988281 143.710938 L 113.5 148.167969 L 113.5 176.78125 C 113.5 179.578125 115.296875 182.105469 117.890625 183.035156 L 159.480469 197.808594 C 160.148438 198.074219 160.945312 198.210938 161.679688 198.210938 C 163.007812 198.210938 164.40625 197.808594 165.539062 197.011719 C 167.269531 195.746094 168.332031 193.75 168.332031 191.554688 L 168.332031 167.730469 L 180.84375 172.257812 L 180.84375 257.898438 L 100.988281 229.417969 Z M 100.988281 143.710938 " fill-opacity="1" fill-rule="nonzero"/></g></svg>