<svg xmlns="http://www.w3.org/2000/svg" xmlns:xlink="http://www.w3.org/1999/xlink" width="500" zoomAndPan="magnify" viewBox="0 0 375 374.999991" height="500" preserveAspectRatio="xMidYMid meet" version="1.0"><defs><clipPath id="c0227e7072"><path d="M 37.5 37.5 L 337.5 37.5 L 337.5 337.5 L 37.5 337.5 Z M 37.5 37.5 " clip-rule="nonzero"/></clipPath><clipPath id="d67f9808e5"><path d="M 187.5 37.5 C 104.65625 37.5 37.5 104.65625 37.5 187.5 C 37.5 270.34375 104.65625 337.5 187.5 337.5 C 270.34375 337.5 337.5 270.34375 337.5 187.5 C 337.5 104.65625 270.34375 37.5 187.5 37.5 Z M 187.5 37.5 " clip-rule="nonzero"/></clipPath><clipPath id="3d1d4c8101"><path d="M 106.546875 90 L 268.546875 90 L 268.546875 288 L 106.546875 288 Z M 106.546875 90 " clip-rule="nonzero"/></clipPath></defs><g clip-path="url(#c0227e7072)"><g clip-path="url(#d67f9808e5)"><path fill="#73ae00" d="M 37.5 37.5 L 337.5 37.5 L 337.5 337.5 L 37.5 337.5 Z M 37.5 37.5 " fill-opacity="1" fill-rule="nonzero"/></g></g><g clip-path="url(#3d1d4c8101)"><path fill="#e9efef" d="M 197.867188 191.4375 C 197.097656 191.90625 196.308594 192.339844 195.503906 192.742188 C 194.695312 193.140625 193.875 193.507812 193.035156 193.839844 C 192.199219 194.167969 191.347656 194.464844 190.484375 194.722656 C 189.621094 194.980469 188.75 195.203125 187.867188 195.386719 C 186.984375 195.570312 186.097656 195.71875 185.203125 195.828125 C 184.308594 195.933594 183.414062 196.007812 182.511719 196.039062 C 181.613281 196.070312 180.710938 196.066406 179.8125 196.019531 C 178.914062 195.976562 178.015625 195.894531 177.125 195.773438 C 176.230469 195.65625 175.34375 195.496094 174.464844 195.300781 C 173.585938 195.105469 172.714844 194.875 171.855469 194.605469 C 170.996094 194.332031 170.152344 194.027344 169.316406 193.6875 C 168.484375 193.34375 167.664062 192.96875 166.863281 192.558594 C 166.0625 192.148438 165.28125 191.703125 164.515625 191.226562 C 163.753906 190.746094 163.011719 190.238281 162.289062 189.699219 C 161.570312 189.15625 160.875 188.585938 160.203125 187.984375 C 159.527344 187.386719 158.882812 186.757812 158.265625 186.105469 C 150.050781 177.214844 147.371094 164.558594 146.941406 152.847656 C 146.851562 149.929688 146.941406 147.453125 147.03125 145.757812 C 149.097656 145.785156 151.160156 145.691406 153.214844 145.480469 C 155.269531 145.265625 157.308594 144.933594 159.324219 144.484375 C 161.339844 144.03125 163.324219 143.464844 165.273438 142.78125 C 167.226562 142.101562 169.128906 141.304688 170.988281 140.402344 C 172.847656 139.496094 174.644531 138.484375 176.386719 137.371094 C 178.125 136.253906 179.792969 135.042969 181.390625 133.730469 C 182.992188 132.421875 184.507812 131.023438 185.941406 129.535156 C 187.375 128.046875 188.71875 126.480469 189.972656 124.835938 C 194.738281 131.421875 205.40625 144.652344 216.523438 148.289062 C 216.671875 155.636719 215.589844 180.566406 197.867188 191.4375 Z M 130.523438 128.324219 C 130.75 128.246094 130.984375 128.195312 131.226562 128.171875 C 131.46875 128.148438 131.707031 128.15625 131.945312 128.191406 C 132.183594 128.226562 132.417969 128.292969 132.640625 128.382812 C 132.863281 128.472656 133.074219 128.589844 133.269531 128.730469 C 133.464844 128.875 133.640625 129.035156 133.796875 129.21875 C 133.957031 129.40625 134.085938 129.605469 134.195312 129.820312 C 134.304688 130.035156 134.386719 130.261719 134.441406 130.5 C 134.492188 130.734375 134.519531 130.972656 134.515625 131.214844 C 134.121094 136.796875 134.550781 142.320312 135.800781 147.777344 C 137.046875 153.234375 139.0625 158.390625 141.847656 163.25 C 140.765625 156.316406 140.597656 149.363281 141.339844 142.390625 C 141.382812 142.019531 141.488281 141.671875 141.664062 141.347656 C 141.839844 141.019531 142.066406 140.734375 142.347656 140.496094 C 142.628906 140.253906 142.945312 140.074219 143.296875 139.953125 C 143.648438 139.832031 144.007812 139.78125 144.378906 139.796875 C 174.773438 140.570312 186.8125 119.027344 187.289062 118.101562 C 187.414062 117.875 187.566406 117.667969 187.746094 117.480469 C 187.925781 117.292969 188.125 117.132812 188.347656 116.996094 C 188.566406 116.863281 188.800781 116.753906 189.046875 116.679688 C 189.296875 116.605469 189.550781 116.5625 189.808594 116.550781 C 190.066406 116.539062 190.324219 116.5625 190.578125 116.617188 C 190.828125 116.671875 191.070312 116.761719 191.300781 116.878906 C 191.53125 116.996094 191.746094 117.140625 191.9375 117.3125 C 192.132812 117.484375 192.300781 117.679688 192.445312 117.894531 C 196.46875 124.183594 209.25 140.898438 220.007812 143.042969 C 220.328125 143.109375 220.625 143.21875 220.90625 143.378906 C 221.1875 143.542969 221.4375 143.742188 221.652344 143.984375 C 221.867188 144.226562 222.035156 144.496094 222.164062 144.796875 C 222.289062 145.09375 222.367188 145.402344 222.394531 145.726562 C 222.8125 153.417969 222.078125 160.996094 220.1875 168.460938 C 229.722656 155.738281 228.949219 131.808594 228.917969 131.511719 C 227.289062 106.199219 209.710938 95.273438 193.070312 96.378906 C 192.410156 96.441406 191.792969 96.304688 191.222656 95.960938 C 190.382812 95.433594 189.519531 94.941406 188.636719 94.484375 C 187.753906 94.027344 186.851562 93.609375 185.9375 93.226562 C 185.019531 92.847656 184.085938 92.503906 183.140625 92.199219 C 182.195312 91.894531 181.238281 91.632812 180.269531 91.40625 C 179.300781 91.183594 178.324219 91 177.339844 90.855469 C 176.359375 90.714844 175.371094 90.613281 174.378906 90.550781 C 173.386719 90.492188 172.394531 90.472656 171.398438 90.492188 C 170.40625 90.515625 169.414062 90.578125 168.425781 90.683594 C 167.4375 90.785156 166.457031 90.933594 165.480469 91.117188 C 164.503906 91.304688 163.539062 91.53125 162.582031 91.796875 C 161.625 92.066406 160.679688 92.371094 159.746094 92.714844 C 158.816406 93.0625 157.898438 93.445312 157 93.867188 C 156.101562 94.289062 155.21875 94.746094 154.355469 95.242188 C 153.496094 95.738281 152.65625 96.265625 151.839844 96.832031 C 151.019531 97.398438 150.226562 97.996094 149.460938 98.625 C 148.691406 99.257812 147.953125 99.917969 147.238281 100.609375 C 143.277344 105.417969 138.886719 109.792969 134.0625 113.734375 C 129.238281 117.675781 124.074219 121.109375 118.574219 124.03125 C 124.800781 130.140625 130.285156 128.382812 130.523438 128.324219 Z M 159.695312 211.730469 L 156.804688 216.320312 L 165.179688 231.667969 L 176.859375 219.597656 L 161.632812 211.222656 C 161.46875 211.132812 161.296875 211.078125 161.109375 211.054688 C 160.925781 211.03125 160.742188 211.042969 160.5625 211.089844 C 160.382812 211.136719 160.21875 211.214844 160.066406 211.328125 C 159.917969 211.4375 159.792969 211.574219 159.695312 211.730469 Z M 196.167969 207.53125 L 196.167969 199.007812 C 193.890625 199.980469 191.535156 200.726562 189.109375 201.234375 C 186.683594 201.746094 184.230469 202.015625 181.75 202.046875 C 179.269531 202.074219 176.8125 201.859375 174.375 201.402344 C 171.9375 200.945312 169.566406 200.257812 167.265625 199.335938 L 167.265625 207.53125 L 181.71875 215.484375 Z M 206.628906 216.320312 L 203.738281 211.730469 C 203.640625 211.570312 203.519531 211.4375 203.367188 211.324219 C 203.21875 211.214844 203.054688 211.132812 202.871094 211.085938 C 202.691406 211.039062 202.507812 211.027344 202.324219 211.050781 C 202.136719 211.074219 201.964844 211.132812 201.800781 211.222656 L 186.574219 219.597656 L 198.253906 231.667969 Z M 267.957031 241.320312 L 255.261719 241.320312 L 255.261719 265.933594 C 255.257812 266.191406 255.226562 266.441406 255.160156 266.6875 C 255.09375 266.933594 254.996094 267.167969 254.871094 267.390625 C 254.746094 267.613281 254.59375 267.816406 254.417969 268 C 254.238281 268.183594 254.042969 268.339844 253.824219 268.472656 C 253.605469 268.605469 253.375 268.710938 253.132812 268.785156 C 252.886719 268.855469 252.636719 268.898438 252.382812 268.910156 C 252.128906 268.917969 251.875 268.898438 251.625 268.84375 C 251.375 268.789062 251.136719 268.703125 250.910156 268.585938 L 243.074219 264.535156 L 235.234375 268.585938 C 235.007812 268.703125 234.769531 268.785156 234.519531 268.839844 C 234.269531 268.894531 234.019531 268.917969 233.765625 268.90625 C 233.507812 268.898438 233.261719 268.855469 233.015625 268.78125 C 232.773438 268.707031 232.539062 268.605469 232.324219 268.472656 C 232.105469 268.339844 231.90625 268.179688 231.730469 267.996094 C 231.550781 267.8125 231.402344 267.613281 231.273438 267.390625 C 231.148438 267.167969 231.054688 266.933594 230.988281 266.6875 C 230.921875 266.441406 230.886719 266.191406 230.886719 265.933594 L 230.886719 241.320312 L 218.191406 241.320312 C 218 241.316406 217.835938 241.382812 217.703125 241.519531 C 217.566406 241.652344 217.503906 241.816406 217.503906 242.007812 L 217.503906 287.183594 C 217.507812 287.367188 217.578125 287.523438 217.710938 287.652344 C 217.847656 287.78125 218.003906 287.84375 218.191406 287.835938 L 267.957031 287.835938 C 268.140625 287.84375 268.300781 287.78125 268.433594 287.652344 C 268.566406 287.523438 268.636719 287.367188 268.640625 287.183594 L 268.640625 242.007812 C 268.644531 241.816406 268.578125 241.652344 268.441406 241.519531 C 268.308594 241.382812 268.144531 241.316406 267.957031 241.320312 Z M 232.195312 235.363281 L 211.097656 220.582031 L 201.5625 238.074219 C 201.449219 238.277344 201.3125 238.464844 201.15625 238.636719 C 200.996094 238.808594 200.820312 238.960938 200.628906 239.09375 C 200.433594 239.222656 200.230469 239.328125 200.011719 239.414062 C 199.792969 239.496094 199.566406 239.550781 199.335938 239.582031 C 199.105469 239.613281 198.871094 239.617188 198.640625 239.59375 C 198.410156 239.570312 198.183594 239.519531 197.960938 239.441406 C 197.742188 239.367188 197.53125 239.265625 197.335938 239.136719 C 197.136719 239.011719 196.957031 238.867188 196.796875 238.699219 L 181.71875 223.144531 L 166.640625 238.699219 C 166.476562 238.867188 166.296875 239.011719 166.097656 239.136719 C 165.902344 239.265625 165.695312 239.367188 165.472656 239.441406 C 165.253906 239.519531 165.027344 239.570312 164.792969 239.59375 C 164.5625 239.617188 164.328125 239.613281 164.097656 239.582031 C 163.867188 239.550781 163.640625 239.496094 163.421875 239.414062 C 163.203125 239.328125 163 239.222656 162.804688 239.09375 C 162.613281 238.960938 162.4375 238.808594 162.277344 238.636719 C 162.121094 238.464844 161.984375 238.277344 161.871094 238.074219 L 152.15625 220.253906 L 129.957031 232.203125 C 128.046875 233.230469 126.25 234.429688 124.574219 235.804688 C 122.898438 237.179688 121.371094 238.703125 119.988281 240.378906 C 118.609375 242.050781 117.40625 243.84375 116.375 245.75 C 115.34375 247.660156 114.507812 249.648438 113.863281 251.722656 L 106.800781 274.277344 C 106.757812 274.410156 106.730469 274.546875 106.714844 274.683594 C 106.703125 274.824219 106.707031 274.960938 106.730469 275.097656 C 106.75 275.234375 106.785156 275.367188 106.839844 275.496094 C 106.890625 275.625 106.960938 275.746094 107.042969 275.859375 C 107.125 275.972656 107.21875 276.074219 107.324219 276.164062 C 107.429688 276.253906 107.542969 276.328125 107.667969 276.390625 C 107.792969 276.453125 107.921875 276.5 108.058594 276.53125 C 108.195312 276.5625 108.332031 276.574219 108.472656 276.574219 L 129.597656 276.574219 L 132.847656 261.941406 C 132.941406 261.5625 133.101562 261.214844 133.332031 260.898438 C 133.5625 260.582031 133.84375 260.320312 134.179688 260.113281 C 134.511719 259.90625 134.871094 259.769531 135.257812 259.707031 C 135.644531 259.640625 136.027344 259.652344 136.410156 259.738281 C 136.792969 259.824219 137.144531 259.976562 137.464844 260.203125 C 137.785156 260.425781 138.054688 260.703125 138.265625 261.03125 C 138.480469 261.359375 138.621094 261.714844 138.695312 262.101562 C 138.769531 262.484375 138.765625 262.871094 138.6875 263.253906 L 135.707031 276.574219 L 211.546875 276.574219 L 211.546875 242.007812 C 211.546875 241.570312 211.589844 241.136719 211.675781 240.710938 C 211.761719 240.28125 211.886719 239.867188 212.054688 239.464844 C 212.21875 239.0625 212.425781 238.679688 212.667969 238.316406 C 212.910156 237.953125 213.1875 237.617188 213.492188 237.308594 C 213.800781 237 214.136719 236.726562 214.5 236.484375 C 214.863281 236.242188 215.246094 236.035156 215.648438 235.867188 C 216.050781 235.703125 216.46875 235.574219 216.894531 235.488281 C 217.324219 235.40625 217.753906 235.363281 218.191406 235.363281 Z M 244.445312 258.546875 L 249.300781 261.046875 L 249.300781 241.320312 L 236.84375 241.320312 L 236.84375 261.046875 C 239.242188 260.046875 242.464844 257.300781 244.445312 258.546875 Z M 244.445312 258.546875 " fill-opacity="1" fill-rule="nonzero"/></g></svg>