<svg xmlns="http://www.w3.org/2000/svg" xmlns:xlink="http://www.w3.org/1999/xlink" width="500" zoomAndPan="magnify" viewBox="0 0 375 374.999991" height="500" preserveAspectRatio="xMidYMid meet" version="1.0"><defs><clipPath id="930d492ade"><path d="M 37.5 37.5 L 337.5 37.5 L 337.5 337.5 L 37.5 337.5 Z M 37.5 37.5 " clip-rule="nonzero"/></clipPath><clipPath id="9b24f73c75"><path d="M 187.5 37.5 C 104.65625 37.5 37.5 104.65625 37.5 187.5 C 37.5 270.34375 104.65625 337.5 187.5 337.5 C 270.34375 337.5 337.5 270.34375 337.5 187.5 C 337.5 104.65625 270.34375 37.5 187.5 37.5 Z M 187.5 37.5 " clip-rule="nonzero"/></clipPath></defs><g clip-path="url(#930d492ade)"><g clip-path="url(#9b24f73c75)"><path fill="#73ae00" d="M 37.5 37.5 L 337.5 37.5 L 337.5 337.5 L 37.5 337.5 Z M 37.5 37.5 " fill-opacity="1" fill-rule="nonzero"/></g></g><path fill="#e9efef" d="M 264.113281 100.378906 L 192.574219 110.257812 C 190.769531 110.546875 189.085938 111.363281 187.75 112.699219 L 101.851562 198.652344 C 98.539062 201.90625 98.539062 207.253906 101.851562 210.566406 L 163.457031 272.171875 C 165.027344 273.796875 167.175781 274.667969 169.441406 274.667969 C 171.652344 274.667969 173.800781 273.796875 175.371094 272.171875 L 261.324219 186.273438 C 262.660156 184.9375 263.476562 183.25 263.707031 181.449219 L 273.644531 109.910156 C 273.996094 107.292969 273.121094 104.679688 271.203125 102.761719 C 269.34375 100.902344 266.730469 100.027344 264.113281 100.378906 Z M 233.488281 158.4375 C 228.546875 163.375 220.527344 163.375 215.585938 158.4375 C 210.648438 153.496094 210.648438 145.476562 215.585938 140.535156 C 220.527344 135.597656 228.546875 135.597656 233.488281 140.535156 C 238.425781 145.476562 238.425781 153.496094 233.488281 158.4375 Z M 233.488281 158.4375 " fill-opacity="1" fill-rule="nonzero"/></svg>