<svg xmlns="http://www.w3.org/2000/svg" xmlns:xlink="http://www.w3.org/1999/xlink" width="500" zoomAndPan="magnify" viewBox="0 0 375 374.999991" height="500" preserveAspectRatio="xMidYMid meet" version="1.0"><defs><clipPath id="8420784714"><path d="M 37.5 37.5 L 337.5 37.5 L 337.5 337.5 L 37.5 337.5 Z M 37.5 37.5 " clip-rule="nonzero"/></clipPath><clipPath id="3836522a4f"><path d="M 187.5 37.5 C 104.65625 37.5 37.5 104.65625 37.5 187.5 C 37.5 270.34375 104.65625 337.5 187.5 337.5 C 270.34375 337.5 337.5 270.34375 337.5 187.5 C 337.5 104.65625 270.34375 37.5 187.5 37.5 Z M 187.5 37.5 " clip-rule="nonzero"/></clipPath></defs><g clip-path="url(#8420784714)"><g clip-path="url(#3836522a4f)"><path fill="#73ae00" d="M 37.5 37.5 L 337.5 37.5 L 337.5 337.5 L 37.5 337.5 Z M 37.5 37.5 " fill-opacity="1" fill-rule="nonzero"/></g></g><path fill="#e9efef" d="M 262.507812 131.644531 L 246.472656 131.644531 L 246.472656 128.828125 C 245.816406 104.09375 209.621094 104.09375 208.917969 128.828125 L 208.917969 131.644531 L 166.082031 131.644531 C 167.390625 120.582031 158.691406 109.824219 147.332031 110.074219 C 135.769531 110.027344 127.371094 120.382812 128.527344 131.644531 L 112.492188 131.644531 C 109.523438 131.644531 107.113281 134.007812 107.113281 136.972656 L 107.113281 265.574219 C 107.113281 268.539062 109.523438 270.953125 112.492188 270.953125 L 262.507812 270.953125 C 265.476562 270.953125 267.886719 268.539062 267.886719 265.574219 L 267.886719 136.972656 C 267.886719 134.007812 265.476562 131.644531 262.507812 131.644531 Z M 219.675781 128.828125 C 219.824219 118.269531 235.5625 118.269531 235.710938 128.828125 L 235.710938 145.269531 C 235.5625 155.824219 219.824219 155.875 219.675781 145.269531 Z M 139.285156 128.828125 C 139.4375 118.269531 155.171875 118.269531 155.324219 128.828125 L 155.324219 145.269531 C 155.171875 155.824219 139.488281 155.875 139.285156 145.269531 Z M 206.957031 232.292969 C 209.015625 234.402344 209.015625 237.773438 206.957031 239.882812 C 204.84375 241.945312 201.425781 241.945312 199.363281 239.882812 L 187.5 228.019531 L 175.636719 239.882812 C 173.574219 241.945312 170.15625 241.945312 168.042969 239.882812 C 165.984375 237.773438 165.984375 234.402344 168.042969 232.292969 L 179.910156 220.425781 L 168.042969 208.613281 C 165.984375 206.5 165.984375 203.082031 168.042969 201.023438 C 170.15625 198.910156 173.574219 198.910156 175.636719 201.023438 L 187.5 212.835938 L 199.363281 201.023438 C 201.425781 198.910156 204.84375 198.910156 206.957031 201.023438 C 209.015625 203.082031 209.015625 206.5 206.957031 208.613281 L 195.089844 220.425781 Z M 257.179688 169.902344 L 117.820312 169.902344 L 117.820312 142.351562 L 128.527344 142.351562 C 126.667969 171.058594 167.941406 171.058594 166.082031 142.351562 L 208.917969 142.351562 L 208.917969 145.269531 C 210.273438 171.964844 248.683594 169.046875 246.472656 142.351562 L 257.179688 142.351562 Z M 257.179688 169.902344 " fill-opacity="1" fill-rule="nonzero"/></svg>