<svg xmlns="http://www.w3.org/2000/svg" xmlns:xlink="http://www.w3.org/1999/xlink" width="500" zoomAndPan="magnify" viewBox="0 0 375 374.999991" height="500" preserveAspectRatio="xMidYMid meet" version="1.0"><defs><clipPath id="1ded73c100"><path d="M 37.5 37.5 L 337.5 37.5 L 337.5 337.5 L 37.5 337.5 Z M 37.5 37.5 " clip-rule="nonzero"/></clipPath><clipPath id="47e1c7f029"><path d="M 187.5 37.5 C 104.65625 37.5 37.5 104.65625 37.5 187.5 C 37.5 270.34375 104.65625 337.5 187.5 337.5 C 270.34375 337.5 337.5 270.34375 337.5 187.5 C 337.5 104.65625 270.34375 37.5 187.5 37.5 Z M 187.5 37.5 " clip-rule="nonzero"/></clipPath><clipPath id="362d6467a5"><path d="M 74.484375 116.5625 L 300 116.5625 L 300 265 L 74.484375 265 Z M 74.484375 116.5625 " clip-rule="nonzero"/></clipPath></defs><g clip-path="url(#1ded73c100)"><g clip-path="url(#47e1c7f029)"><path fill="#73ae00" d="M 37.5 37.5 L 337.5 37.5 L 337.5 337.5 L 37.5 337.5 Z M 37.5 37.5 " fill-opacity="1" fill-rule="nonzero"/></g></g><g clip-path="url(#362d6467a5)"><path fill="#e9efef" d="M 187.148438 116.789062 C 139.546875 116.789062 95.609375 144.53125 75.1875 187.554688 C 74.273438 189.597656 74.273438 191.992188 75.1875 193.964844 C 95.679688 236.917969 139.617188 264.660156 187.148438 264.660156 C 234.675781 264.660156 278.617188 236.917969 299.105469 193.964844 C 300.023438 191.992188 300.023438 189.597656 299.105469 187.554688 C 278.6875 144.53125 234.746094 116.789062 187.148438 116.789062 Z M 187.148438 235.367188 C 162.570312 235.367188 142.503906 215.300781 142.503906 190.722656 C 142.503906 166.148438 162.570312 146.082031 187.148438 146.082031 C 211.722656 146.082031 231.789062 166.148438 231.789062 190.722656 C 231.789062 215.300781 211.722656 235.367188 187.148438 235.367188 Z M 187.148438 235.367188 " fill-opacity="1" fill-rule="nonzero"/></g><path fill="#e9efef" d="M 216.722656 190.722656 C 216.722656 191.691406 216.671875 192.660156 216.578125 193.625 C 216.484375 194.585938 216.339844 195.542969 216.152344 196.492188 C 215.964844 197.445312 215.726562 198.382812 215.449219 199.308594 C 215.167969 200.234375 214.839844 201.148438 214.46875 202.042969 C 214.097656 202.9375 213.683594 203.8125 213.230469 204.664062 C 212.773438 205.519531 212.273438 206.351562 211.738281 207.15625 C 211.199219 207.960938 210.621094 208.738281 210.007812 209.484375 C 209.394531 210.234375 208.742188 210.953125 208.058594 211.636719 C 207.375 212.320312 206.65625 212.972656 205.910156 213.585938 C 205.160156 214.199219 204.382812 214.777344 203.578125 215.316406 C 202.773438 215.851562 201.941406 216.351562 201.085938 216.804688 C 200.234375 217.261719 199.359375 217.675781 198.464844 218.046875 C 197.570312 218.417969 196.660156 218.742188 195.730469 219.023438 C 194.804688 219.304688 193.867188 219.542969 192.917969 219.730469 C 191.964844 219.917969 191.007812 220.0625 190.046875 220.15625 C 189.082031 220.25 188.113281 220.296875 187.148438 220.296875 C 186.179688 220.296875 185.210938 220.25 184.246094 220.15625 C 183.285156 220.0625 182.328125 219.917969 181.378906 219.730469 C 180.425781 219.542969 179.488281 219.304688 178.5625 219.023438 C 177.636719 218.742188 176.722656 218.417969 175.828125 218.046875 C 174.933594 217.675781 174.058594 217.261719 173.207031 216.804688 C 172.351562 216.351562 171.519531 215.851562 170.714844 215.316406 C 169.910156 214.777344 169.132812 214.199219 168.386719 213.585938 C 167.636719 212.972656 166.917969 212.320312 166.234375 211.636719 C 165.550781 210.953125 164.898438 210.234375 164.285156 209.484375 C 163.671875 208.738281 163.09375 207.960938 162.554688 207.15625 C 162.019531 206.351562 161.519531 205.519531 161.066406 204.664062 C 160.609375 203.8125 160.195312 202.9375 159.824219 202.042969 C 159.453125 201.148438 159.128906 200.234375 158.847656 199.308594 C 158.566406 198.382812 158.328125 197.445312 158.140625 196.492188 C 157.953125 195.542969 157.808594 194.585938 157.714844 193.625 C 157.621094 192.660156 157.574219 191.691406 157.574219 190.722656 C 157.574219 189.757812 157.621094 188.789062 157.714844 187.824219 C 157.808594 186.863281 157.953125 185.90625 158.140625 184.953125 C 158.328125 184.003906 158.566406 183.066406 158.847656 182.140625 C 159.128906 181.210938 159.453125 180.300781 159.824219 179.40625 C 160.195312 178.511719 160.609375 177.636719 161.066406 176.785156 C 161.519531 175.929688 162.019531 175.097656 162.554688 174.292969 C 163.09375 173.488281 163.671875 172.710938 164.285156 171.960938 C 164.898438 171.214844 165.550781 170.496094 166.234375 169.8125 C 166.917969 169.128906 167.636719 168.476562 168.386719 167.863281 C 169.132812 167.25 169.910156 166.671875 170.714844 166.132812 C 171.519531 165.597656 172.351562 165.097656 173.207031 164.640625 C 174.058594 164.1875 174.933594 163.773438 175.828125 163.402344 C 176.722656 163.03125 177.636719 162.703125 178.5625 162.421875 C 179.488281 162.144531 180.425781 161.90625 181.378906 161.71875 C 182.328125 161.53125 183.285156 161.386719 184.246094 161.292969 C 185.210938 161.199219 186.179688 161.148438 187.148438 161.148438 C 188.113281 161.148438 189.082031 161.199219 190.046875 161.292969 C 191.007812 161.386719 191.964844 161.53125 192.917969 161.71875 C 193.867188 161.90625 194.804688 162.144531 195.730469 162.421875 C 196.660156 162.703125 197.570312 163.03125 198.464844 163.402344 C 199.359375 163.773438 200.234375 164.1875 201.085938 164.640625 C 201.941406 165.097656 202.773438 165.597656 203.578125 166.132812 C 204.382812 166.671875 205.160156 167.25 205.910156 167.863281 C 206.65625 168.476562 207.375 169.128906 208.058594 169.8125 C 208.742188 170.496094 209.394531 171.214844 210.007812 171.960938 C 210.621094 172.710938 211.199219 173.488281 211.738281 174.292969 C 212.273438 175.097656 212.773438 175.929688 213.230469 176.785156 C 213.683594 177.636719 214.097656 178.511719 214.46875 179.40625 C 214.839844 180.300781 215.167969 181.210938 215.449219 182.140625 C 215.726562 183.066406 215.964844 184.003906 216.152344 184.953125 C 216.339844 185.90625 216.484375 186.863281 216.578125 187.824219 C 216.671875 188.789062 216.722656 189.757812 216.722656 190.722656 Z M 216.722656 190.722656 " fill-opacity="1" fill-rule="nonzero"/></svg>